<svg version="1.1" width="474" class="ml-0 mt-2 mb-0 ml-md-2 mb-md-n4 " xmlns="http://www.w3.org/2000/svg" xmlns:xlink="http://www.w3.org/1999/xlink" x="0px" y="0px" viewBox="0 0 474 242.9" style="enable-background:new 0 0 474 242.9;" xml:space="preserve" height="242.9" >
                          <style type="text/css">
                            .st0{display:none;}
                            .st1{display:inline;fill:#1B2531;}
                            .st2{fill:#F128C1;}
                            .st3{opacity:0.9155;}
                            .st4{opacity:0.8309;}
                            .st5{opacity:0.7464;}
                            .st6{opacity:0.6618;}
                            .st7{opacity:0.5773;}
                            .st8{opacity:0.4927;}
                            .st9{opacity:0.4082;}
                            .st10{opacity:0.3236;}
                            .st11{opacity:0.2391;}
                            .st12{opacity:0.1545;}
                            .st13{opacity:7.000000e-02;}
                            .st14{fill:#72D0EB;}
                            .st15{fill:#F2F2F2;}
                            .st16{fill:#FFFFFF;}
                            .st17{opacity:0.9155;fill:none;stroke:#F128C1;stroke-width:2.6679;stroke-miterlimit:10;}
                            .st18{opacity:0.8309;fill:none;stroke:#F128C1;stroke-width:2.5011;stroke-miterlimit:10;}
                            .st19{opacity:0.7464;fill:none;stroke:#F128C1;stroke-width:2.3343;stroke-miterlimit:10;}
                            .st20{opacity:0.6618;fill:none;stroke:#F128C1;stroke-width:2.1675;stroke-miterlimit:10;}
                            .st21{opacity:0.5773;fill:none;stroke:#F128C1;stroke-width:2.0007;stroke-miterlimit:10;}
                            .st22{opacity:0.4927;fill:none;stroke:#F128C1;stroke-width:1.8339;stroke-miterlimit:10;}
                            .st23{opacity:0.4082;fill:none;stroke:#F128C1;stroke-width:1.6671;stroke-miterlimit:10;}
                            .st24{opacity:0.3236;fill:none;stroke:#F128C1;stroke-width:1.5004;stroke-miterlimit:10;}
                            .st25{opacity:0.2391;fill:none;stroke:#F128C1;stroke-width:1.3336;stroke-miterlimit:10;}
                            .st26{opacity:0.1545;fill:none;stroke:#F128C1;stroke-width:1.1668;stroke-miterlimit:10;}
                            .st27{opacity:0.9155;fill:none;stroke:#72D0EB;stroke-width:2.6679;stroke-miterlimit:10;}
                            .st28{opacity:0.8309;fill:none;stroke:#72D0EB;stroke-width:2.5011;stroke-miterlimit:10;}
                            .st29{opacity:0.7464;fill:none;stroke:#72D0EB;stroke-width:2.3343;stroke-miterlimit:10;}
                            .st30{opacity:0.6618;fill:none;stroke:#72D0EB;stroke-width:2.1675;stroke-miterlimit:10;}
                            .st31{opacity:0.5773;fill:none;stroke:#72D0EB;stroke-width:2.0007;stroke-miterlimit:10;}
                            .st32{opacity:0.4927;fill:none;stroke:#72D0EB;stroke-width:1.8339;stroke-miterlimit:10;}
                            .st33{opacity:0.4082;fill:none;stroke:#72D0EB;stroke-width:1.6671;stroke-miterlimit:10;}
                            .st34{opacity:0.3236;fill:none;stroke:#72D0EB;stroke-width:1.5004;stroke-miterlimit:10;}
                            .st35{opacity:0.2391;fill:none;stroke:#72D0EB;stroke-width:1.3336;stroke-miterlimit:10;}
                            .st36{opacity:0.1545;fill:none;stroke:#72D0EB;stroke-width:1.1668;stroke-miterlimit:10;}
                            .st37{fill:none;}
                            .st38{fill:#3FA9F5;}
                            .st39{fill:#F945B6;}
                            .st40{fill:#F747B7;}
                            .st41{fill:#F44AB8;}
                            .st42{fill:#F14DB9;}
                            .st43{fill:#EE50BA;}
                            .st44{fill:#EC53BB;}
                            .st45{fill:#E956BC;}
                            .st46{fill:#E658BD;}
                            .st47{fill:#E35BBE;}
                            .st48{fill:#E15EC0;}
                            .st49{fill:#DE61C1;}
                            .st50{fill:#DB64C2;}
                            .st51{fill:#D867C3;}
                            .st52{fill:#D56AC4;}
                            .st53{fill:#D36CC5;}
                            .st54{fill:#D06FC6;}
                            .st55{fill:#CD72C7;}
                            .st56{fill:#CA75C8;}
                            .st57{fill:#C878C9;}
                            .st58{fill:#C57BCA;}
                            .st59{fill:#C27DCC;}
                            .st60{fill:#BF80CD;}
                            .st61{fill:#BD83CE;}
                            .st62{fill:#BA86CF;}
                            .st63{fill:#B789D0;}
                            .st64{fill:#B48CD1;}
                            .st65{fill:#B28ED2;}
                            .st66{fill:#AF91D3;}
                            .st67{fill:#AC94D4;}
                            .st68{fill:#A997D5;}
                            .st69{fill:#A69AD6;}
                            .st70{fill:#A49DD7;}
                            .st71{fill:#A1A0D9;}
                            .st72{fill:#9EA2DA;}
                            .st73{fill:#9BA5DB;}
                            .st74{fill:#99A8DC;}
                            .st75{fill:#96ABDD;}
                            .st76{fill:#93AEDE;}
                            .st77{fill:#90B1DF;}
                            .st78{fill:#8EB3E0;}
                            .st79{fill:#8BB6E1;}
                            .st80{fill:#88B9E2;}
                            .st81{fill:#85BCE3;}
                          </style>
                          <g id="bg" class="st0">
                            <rect x="-0.6" y="0" class="st1" width="475.4" height="242.9" fill="#1B2531"></rect>
                          </g>
                          <g id="Слой_1">
                          </g>
                          <g id="Logo_color">
                          </g>
                          <g id="Logo_white">
                            <g>
                              <circle class="st16" cx="176.4" cy="162.3" r="10.9" fill="#FFFFFF"></circle>
                              <g>
                                <rect x="96.4" y="133.2" class="st16" width="5.9" height="57.5" fill="#FFFFFF"></rect>
                                <polygon class="st16" points="110.6,139.1 123.9,139.1 123.9,190.8 129.8,190.8 129.8,139.1 143,139.1 143,133.2 110.6,133.1           
                                  " fill="#FFFFFF"></polygon>
                                <path class="st16" d="M164.2,140.9c3.7-2.2,7.9-3.3,12.6-3.3c6.5,0,12.2,2.2,16.8,6.7l4.2-4.1c-5.9-5.7-12.9-8.5-21-8.5
                                  c-8.3,0-15.4,3-21.4,8.9c-5.9,5.9-8.9,13-8.9,21.3c0,8.4,2.9,15.5,8.8,21.5c5.9,5.9,13,8.9,21.4,8.9c8.1,0,15.1-2.9,21-8.6
                                  l-4.2-4c-4.6,4.5-10.2,6.7-16.8,6.7c-5,0-9.4-1.2-13.1-3.6c-3.5-2.3-6.3-5.3-8.2-9c-2-3.7-3-7.7-3-11.9c0-3.9,0.9-7.7,2.8-11.5
                                  C157.4,146.4,160.3,143.2,164.2,140.9z" fill="#FFFFFF"></path>
                                <path class="st16" d="M234.2,131.7c-8.3,0-15.4,3-21.4,8.9c-5.9,5.9-8.9,13-8.9,21.3s3,15.4,8.9,21.4c5.9,5.9,13,8.9,21.4,8.9
                                  s15.4-3,21.3-8.9c5.9-5.9,8.9-13,8.9-21.4c0-8.3-2.9-15.5-8.8-21.4C249.7,134.7,242.6,131.7,234.2,131.7z M255.5,173.7
                                  c-2,3.7-4.8,6.7-8.2,8.9c-3.7,2.4-8,3.6-13,3.6c-4.2,0-8.1-1-11.8-3c-3.7-2-6.7-4.8-8.9-8.2c-2.4-3.7-3.6-8-3.6-13.1
                                  c0-3.9,0.9-7.7,2.8-11.4c2.1-4.1,5-7.3,8.9-9.6c3.8-2.2,8-3.3,12.6-3.3c3.9,0,7.7,0.9,11.4,2.8c4.1,2.1,7.3,5,9.5,8.8
                                  c2.2,3.8,3.3,8,3.3,12.7C258.5,166.1,257.5,170.1,255.5,173.7z" fill="#FFFFFF"></path>
                                <path class="st16" d="M336.6,140.9c3.7-2.2,7.9-3.3,12.6-3.3c6.5,0,12.2,2.2,16.8,6.7l4.2-4.1c-5.9-5.7-12.9-8.5-21-8.5
                                  c-8.3,0-15.4,3-21.4,8.9c-5.9,5.9-8.9,13-8.9,21.3c0,8.4,2.9,15.5,8.8,21.5c5.9,5.9,13,8.9,21.4,8.9c8.1,0,15.1-2.9,21-8.6
                                  l-4.2-4c-4.6,4.5-10.2,6.7-16.8,6.7c-5,0-9.4-1.2-13.1-3.6c-3.5-2.3-6.3-5.3-8.2-9c-2-3.7-3-7.7-3-11.9c0-3.9,0.9-7.7,2.8-11.5
                                  C329.7,146.4,332.7,143.2,336.6,140.9z" fill="#FFFFFF"></path>
                                <polygon class="st16" points="307.2,179.8 276.2,133.3 276.2,133.2 270.3,133.2 270.3,190.7 276.2,190.7 276.2,143.6 
                                  307.2,190.7 313.1,190.7 313.1,133.2 307.2,133.2           " fill="#FFFFFF"></polygon>
                                <path class="st16" d="M74.3,157.9c2.1-2.6,3.4-5.9,3.4-9.5c0-8.3-6.8-15.1-15.1-15.1H30.9v56.8h41.9c8.9,0,16.2-7.3,16.2-16.2
                                  C89,165.6,82.5,158.7,74.3,157.9z M36.6,139h26c5.2,0,9.4,4.2,9.4,9.4s-4.2,9.4-9.4,9.4h-26V139z M72.8,184.5H36.6v-21h36.2
                                  c5.8,0,10.5,4.7,10.5,10.5S78.6,184.5,72.8,184.5z" fill="#FFFFFF"></path>
                                <polygon class="st16" points="433.4,139.1 433.4,133.2 376,133.2 376,190.7 433.4,190.7 433.4,184.8 381.9,184.8 381.9,166.4 
                                  429,166.4 429,160.5 381.9,160.5 381.9,139.1           " fill="#FFFFFF"></polygon>
                              </g>
                              <polygon class="st16" points="360.1,162.3 348.8,173.6 337.5,162.3 348.8,150.9         " fill="#FFFFFF"></polygon>
                              <g>
                                <polygon class="st16" points="252.5,36.9 249,27.9 246.6,33.2 241.3,30.9 239,36.2 233.7,33.9 237.2,42.9          " fill="#FFFFFF"></polygon>
                                
                                  <rect x="237.7" y="41.8" transform="matrix(0.9314 -0.364 0.364 0.9314 1.3391 92.4348)" class="st16" width="16.4" height="1.8" fill="#FFFFFF"></rect>
                                <path class="st16" d="M253.7,112.5c0,0,0-0.1,0-0.2s-0.1-0.4-0.1-0.6c-0.1-0.7-0.2-1.8-0.4-3.1c-0.1-0.5-0.1-1.1-0.2-1.7
                                  s-0.1-1.3-0.2-1.9c-0.3-3.2-0.6-7-0.6-10.6c-2.4,6.7-4.1,14.5-4.8,17.5l1.9,2.3l0.6,0.7l0,0.9l0.2,4.3l0,0.1h6.5l-0.2-4.3
                                  L253.7,112.5z" fill="#FFFFFF"></path>
                                <path class="st16" d="M197.6,109.2l-4,11h9.8l3.1-9.5C203.6,110.5,200.6,110,197.6,109.2C197.7,109.2,197.6,109.2,197.6,109.2z" fill="#FFFFFF"></path>
                                <path class="st16" d="M289.1,69.7c-1.7-2.5-4.2-5.1-7.1-7.8c-0.8-0.8-1.7-1.5-2.6-2.3c-0.4-0.4-0.9-0.7-1.4-1.1
                                  c-1.8-1.5-3.7-2.9-5.6-4.3c-0.7-0.5-1.5-1.1-2.2-1.6c-0.7-0.5-1.3-0.9-2-1.4c-1.1-0.7-2.1-1.4-3.1-2.1c-0.6-0.4-1.1-0.7-1.6-1.1
                                  c-4.5-3-7.8-4.9-7.8-4.9l-9.6,3.6l-7,2.6l-18-5.2l-10.7,15.4l17.8,27.1l5.6-2.9l-6.7,7.4l-12.7-19.2l-6.5-9.9L185.4,70l-8.7,14.2
                                  l7.9-7.3c0,0-2.1,6.4-4.8,14.4c-0.4,1.1-0.8,2.3-1.2,3.5c-0.8,2.4-1.6,4.9-2.4,7.3c-2.4,7.3-4.7,14.4-5.8,18.2h13.2h7l5.3-14.8
                                  c0,0,0.9,0.7,2.5,1.1c0.9,0.2,1.8,0.4,2.7,0.6c0.3,0.1,0.6,0.1,0.8,0.2c0.6,0.1,1.3,0.2,1.9,0.3c0.3,0,0.6,0.1,0.9,0.1
                                  c0.7,0.1,1.3,0.1,2,0.2c0.2,0,0.4,0,0.6,0c0.1,0,0.1,0,0.2,0c0.9,0.1,1.8,0.1,2.7,0.1c0.7,0,1.4,0,2.1,0c0.2,0,0.4,0,0.6,0
                                  c0.5,0,1.1-0.1,1.6-0.1c0.2,0,0.4,0,0.6-0.1c0.7-0.1,1.4-0.2,2.1-0.3c3.1-0.5,6.1-1.2,9.4-1.9v14.5h20.4l-0.2-4.3l-2.7-3.4
                                  c0,0,0.6-2.9,1.6-6.9c0.1-0.3,0.2-0.7,0.3-1c0.2-0.7,0.4-1.4,0.6-2.2c0.8-3,1.8-6.3,2.9-9.4c0.3-0.8,0.6-1.5,0.8-2.3
                                  c1-2.6,2.1-4.9,3.3-6.6c4.7-7,10.6-12.2,19.4-13.5c0.4-0.1,0.8-0.1,1.2-0.1c0,0,0.1,0,0.1,0c0,0,0,0,0.1,0c0.4,0,0.8,0,1.1,0.1
                                  c0.1,0,0.1,0,0.2,0c0.4,0.1,0.7,0.1,1.1,0.2c0.1,0,0.1,0,0.2,0.1c0.4,0.1,0.7,0.2,1,0.4c0,0,0,0,0.1,0c0.3,0.2,0.6,0.3,0.9,0.5
                                  c0,0,0.1,0,0.1,0.1c0.3,0.2,0.6,0.4,0.8,0.7c0,0,0.1,0.1,0.1,0.1c0.3,0.2,0.5,0.5,0.7,0.8c0,0.1,0.1,0.1,0.1,0.2
                                  c0.2,0.3,0.4,0.6,0.6,0.9c0,0,0,0.1,0.1,0.1c0.2,0.4,0.3,0.7,0.5,1.1c1.2,3.6-0.4,7.8-3.7,9.6c-0.3,0.2-0.6,0.3-0.9,0.4
                                  c-0.1,0-0.2,0.1-0.2,0.1c-0.2,0.1-0.5,0.2-0.8,0.2c-0.1,0-0.1,0-0.2,0c-0.3,0.1-0.6,0.1-0.9,0.2c-0.1,0-0.1,0-0.2,0
                                  c-0.2,0-0.5,0-0.7,0c0,0-0.1,0-0.1,0c0,0-0.1,0-0.1,0c-0.6,0-1.1-0.1-1.6-0.2c-0.1,0-0.2,0-0.2-0.1c-0.2,0-0.4-0.1-0.6-0.2
                                  c-0.1,0-0.2-0.1-0.3-0.1c-0.2-0.1-0.4-0.2-0.6-0.2c-0.1,0-0.1-0.1-0.2-0.1c-0.2-0.1-0.5-0.3-0.7-0.4c-0.1,0-0.1-0.1-0.2-0.1
                                  c-0.2-0.1-0.3-0.2-0.5-0.4c-0.1-0.1-0.1-0.1-0.2-0.2c-0.1-0.1-0.3-0.3-0.4-0.4c-0.1-0.1-0.1-0.1-0.2-0.2
                                  c-0.2-0.2-0.4-0.4-0.5-0.7c-0.8-1.1-1.2-2.5-1.8-3.9c-1.7,1-3.2,2.2-4.6,3.4c0,0.2,0.1,0.4,0.2,0.5c0.1,0.4,0.3,0.7,0.5,1.1
                                  c0.1,0.1,0.1,0.2,0.2,0.3c0.1,0.2,0.2,0.5,0.4,0.7c0.1,0.1,0.1,0.2,0.2,0.4c0.1,0.2,0.2,0.4,0.4,0.6c0.1,0.1,0.2,0.2,0.2,0.4
                                  c0.1,0.2,0.3,0.4,0.4,0.6c0.1,0.1,0.2,0.2,0.3,0.3c0.2,0.2,0.3,0.4,0.5,0.6c0.1,0.1,0.1,0.2,0.2,0.2c0.2,0.3,0.5,0.5,0.8,0.7
                                  c0,0,0,0,0,0c0.3,0.2,0.5,0.5,0.8,0.7c0.1,0.1,0.2,0.1,0.3,0.2c0.2,0.1,0.4,0.3,0.6,0.4c0.1,0.1,0.2,0.1,0.3,0.2
                                  c0.2,0.1,0.4,0.2,0.6,0.3c0.1,0.1,0.2,0.1,0.3,0.2c0.2,0.1,0.4,0.2,0.6,0.3c0.1,0.1,0.2,0.1,0.3,0.2c0.2,0.1,0.5,0.2,0.7,0.3
                                  c0.1,0,0.2,0.1,0.3,0.1c0.3,0.1,0.7,0.2,1,0.3c0,0,0,0,0,0c0.3,0.1,0.6,0.2,1,0.2c0.1,0,0.2,0,0.3,0.1c0.2,0,0.5,0.1,0.7,0.1
                                  c0.1,0,0.3,0,0.4,0.1c0.2,0,0.4,0.1,0.7,0.1c0.1,0,0.3,0,0.4,0c0.2,0,0.4,0,0.7,0c0.1,0,0.2,0,0.4,0c0.5,0,0.9,0,1.4-0.1
                                  c0.1,0,0.2,0,0.3,0c0.5-0.1,0.9-0.1,1.4-0.2c0,0,0,0,0,0c0.5-0.1,0.9-0.2,1.4-0.4c0.1,0,0.2-0.1,0.3-0.1c0.4-0.1,0.9-0.3,1.3-0.5
                                  c0.1,0,0.2-0.1,0.2-0.1c0.4-0.2,0.9-0.4,1.3-0.7c0,0,0,0,0,0c0.4-0.3,0.8-0.5,1.2-0.8c0.1-0.1,0.2-0.1,0.2-0.2
                                  c0.4-0.3,0.8-0.6,1.1-1c0.1-0.1,0.1-0.1,0.2-0.2c0.4-0.4,0.7-0.7,1.1-1.2C292.2,82.1,292.9,75.4,289.1,69.7z" fill="#FFFFFF"></path>
                              </g>
                            </g>
                          </g>
                          <g id="Logo_Black">
                          </g>
                        </svg>