<?xml version="1.0" encoding="iso-8859-1"?>
<!-- Uploaded to: SVG Repo, www.svgrepo.com, Generator: SVG Repo Mixer Tools -->
<svg version="1.1" id="Layer_1" xmlns="http://www.w3.org/2000/svg" xmlns:xlink="http://www.w3.org/1999/xlink" 
	 viewBox="0 0 512 512" xml:space="preserve">
<path style="fill:#D3D7DF;" d="M12.8,217.6v281.6h486.4V217.6H12.8z"/>
<path style="fill:#FEDEA1;" d="M453.299,76.8L384,7.501L119.305,272.196l70.366,68.233L453.299,76.8z"/>
<path style="fill:#BFA779;" d="M119.305,272.196L64.358,395.733l125.321-55.305L119.305,272.196z"/>
<g>
	<path style="fill:#573A32;" d="M377.003,410.726c-6.101-5.171-9.011-12.851-8.892-23.526c0-4.096-1.263-7.552-3.541-9.822
		c-4.489-5.026-13.739-4.873-17.801-0.247c-2.509,2.5-3.789,5.871-3.789,10.078c0,19.473,6.025,34.099,17.954,43.529
		c7.339,5.521,17.476,9.225,30.174,11.025v10.351c0,7.228,4.591,11.904,11.691,11.904c7.236,0,11.913-4.676,11.913-11.904v-10.129
		c12.066-1.852,22.451-6.451,30.925-13.696c10.837-9.301,16.341-21.376,16.341-35.849c0-13.679-4.864-24.602-14.438-32.452
		c-7.04-5.871-17.783-10.897-32.828-15.403v-49.579c3.447,0.802,6.4,2.048,8.764,3.746c4.702,3.524,7.151,8.721,7.484,15.701
		c0,4.173,1.348,7.646,4.036,10.325c4.847,4.821,13.841,4.599,17.997-0.051c2.628-2.671,3.959-6.153,3.959-10.274
		c0-13.124-4.574-23.902-13.636-32.102c-7.509-6.647-17.126-10.752-28.612-12.151v-6.05c0-7.1-4.676-11.699-11.913-11.699
		c-7.1,0-11.691,4.599-11.691,11.699v5.999c-11.537,1.323-21.35,5.427-29.21,12.151c-10.24,8.926-15.428,20.821-15.428,35.422
		c0,12.774,4.702,23.228,13.935,31.078c7.091,6.101,17.135,10.871,30.703,14.524v53.623
		C385.212,415.701,380.476,413.602,377.003,410.726z M414.711,370.202c9.062,2.85,13.312,5.478,15.309,7.296
		c3.661,3.226,5.513,8.704,5.513,16.222c0,7.475-2.85,12.996-9.003,17.399c-3.439,2.551-7.398,4.429-11.827,5.623v-46.541H414.711z
		 M377.882,330.146c-3.49-3.601-5.188-8.149-5.188-13.952c0-7.074,2.526-12.271,7.936-16.324c3.012-2.253,6.528-3.874,10.487-4.898
		v42.829C385.169,335.625,380.732,333.047,377.882,330.146z"/>
	<rect x="51.2" y="435.2" style="fill:#573A32;" width="281.6" height="25.6"/>
	<path style="fill:#573A32;" d="M453.299,94.899c10.001-10.001,10.001-26.206,0-36.207l-51.2-51.2C397.107,2.5,390.554,0,384,0
		c-6.554,0-13.107,2.5-18.099,7.501L168.593,204.8H0V512h512V204.8H343.407L453.299,94.899z M384,25.6l51.2,51.2L188.254,323.746
		l-51.2-51.2L384,25.6z M167.134,338.833L76.8,384l45.167-90.334L167.134,338.833z M486.4,230.4v256H25.6v-256h117.393
		l-33.101,33.101c-1.946,1.946-3.567,4.19-4.796,6.656l-51.2,102.4c-4.932,9.856-2.995,21.76,4.796,29.551
		c4.924,4.915,11.469,7.484,18.108,7.492H256V384H134.042l56.61-28.305c2.458-1.229,4.71-2.85,6.656-4.796L317.807,230.4H486.4z"/>
	
		<rect x="320.001" y="55.623" transform="matrix(-0.7071 -0.7071 0.7071 -0.7071 477.5935 453.8898)" style="fill:#573A32;" width="25.6" height="144.818"/>
</g>
</svg>