<?xml version="1.0" encoding="iso-8859-1"?>
<!-- Uploaded to: SVG Repo, www.svgrepo.com, Generator: SVG Repo Mixer Tools -->
<svg version="1.1" id="Layer_1" xmlns="http://www.w3.org/2000/svg" xmlns:xlink="http://www.w3.org/1999/xlink" 
	 viewBox="0 0 512 512" xml:space="preserve">
<path style="fill:#D5DCED;" d="M46.256,8.828v494.345c0,4.875,3.953,8.828,8.828,8.828h247.172c4.875,0,8.828-3.953,8.828-8.828
	V8.828c0-4.875-3.953-8.828-8.828-8.828H55.084C50.208,0,46.256,3.953,46.256,8.828z"/>
<path style="fill:#AFB9D2;" d="M275.773,485.517H81.566c-4.879,0-8.828-3.953-8.828-8.828V35.31c0-4.875,3.948-8.828,8.828-8.828
	h194.207c4.879,0,8.828,3.953,8.828,8.828V476.69C284.6,481.565,280.652,485.517,275.773,485.517z"/>
<rect x="90.393" y="44.138" style="fill:#C7CFE2;" width="176.552" height="423.724"/>
<path style="fill:#AFB9D2;" d="M249.29,335.448h35.31V176.552h-35.31c-14.626,0-26.483,11.857-26.483,26.483v105.931
	C222.807,323.592,234.665,335.448,249.29,335.448z"/>
<rect x="284.601" y="176.552" style="fill:#C7CFE2;" width="26.483" height="158.897"/>
<path style="fill:#B4E66E;" d="M462.881,249.493l-84.04-77.036c-5.662-5.191-14.793-1.174-14.793,6.507v15.243H249.29
	c-4.875,0-8.828,3.953-8.828,8.828v105.931c0,4.875,3.953,8.828,8.828,8.828h114.759v15.243c0,7.681,9.131,11.698,14.793,6.507
	l84.04-77.036C466.698,259.008,466.698,252.991,462.881,249.493z"/>
<path style="fill:#A0D755;" d="M372.876,288.915h-97.103c-4.875,0-8.828-3.953-8.828-8.828v-85.88H249.29
	c-4.875,0-8.828,3.953-8.828,8.828v105.931c0,4.875,3.953,8.828,8.828,8.828h114.759v15.243c0,7.681,9.131,11.698,14.793,6.507
	l11.69-10.716v-22.257C390.531,296.82,382.627,288.915,372.876,288.915z"/>
</svg>