<?xml version="1.0" standalone="no"?>
<!DOCTYPE svg PUBLIC "-//W3C//DTD SVG 20010904//EN"
 "http://www.w3.org/TR/2001/REC-SVG-20010904/DTD/svg10.dtd">
<svg version="1.0" xmlns="http://www.w3.org/2000/svg"
 width="366.000000pt" height="102.000000pt" viewBox="0 0 366.000000 102.000000"
 preserveAspectRatio="xMidYMid meet">
<metadata>
Created by potrace 1.16, written by Peter Selinger 2001-2019
</metadata>
<g transform="translate(0.000000,102.000000) scale(0.100000,-0.100000)"
fill="#000000" stroke="none">
<path d="M0 510 l0 -510 1830 0 1830 0 0 510 0 510 -1830 0 -1830 0 0 -510z
m616 389 c32 -11 68 -23 79 -26 21 -6 65 -42 65 -53 0 -3 -51 -34 -112 -70
-62 -35 -124 -70 -137 -79 -13 -9 -43 -26 -65 -39 -57 -32 -69 -46 -61 -71 7
-22 48 -30 60 -10 4 5 17 15 28 20 12 5 54 27 92 49 39 21 78 39 87 40 35 0
85 -39 98 -79 11 -36 11 -43 -7 -71 -11 -18 -29 -37 -41 -43 -11 -7 -58 -34
-104 -61 -46 -28 -100 -58 -120 -68 -78 -38 -35 -64 88 -55 59 4 81 11 116 35
107 75 143 146 136 269 -3 52 -10 87 -22 106 -22 33 -14 60 16 55 18 -2 28
-17 45 -63 51 -141 12 -296 -98 -386 -83 -68 -124 -83 -224 -83 -78 0 -99 4
-152 28 -106 48 -106 61 5 122 37 20 81 47 99 60 17 13 36 24 42 24 15 0 134
70 148 88 14 16 1 52 -19 52 -6 0 -57 -27 -114 -60 -122 -71 -159 -77 -205
-31 -23 24 -29 38 -29 73 0 48 17 70 75 101 132 69 238 133 243 145 15 40 -88
55 -180 27 -92 -27 -153 -85 -187 -176 -28 -72 -26 -132 5 -215 24 -65 24 -69
8 -81 -25 -18 -29 -17 -50 15 -47 68 -58 204 -26 289 38 99 112 177 195 207
121 43 140 44 223 15z m791 -251 c33 -31 32 -96 -2 -137 -22 -25 -34 -30 -78
-33 -45 -3 -52 -6 -57 -28 -4 -18 -13 -26 -34 -28 -16 -2 -33 2 -37 10 -10 15
-12 198 -3 222 5 13 23 16 97 16 79 0 94 -3 114 -22z m207 6 c38 -37 27 -109
-20 -134 -29 -16 -32 -40 -5 -40 26 0 52 -27 45 -45 -9 -22 -192 -22 -200 0
-13 32 7 63 61 99 73 48 72 76 -5 76 -36 0 -58 24 -40 45 18 21 143 21 164 -1z
m265 -10 c30 -38 28 -94 -5 -133 -22 -27 -32 -31 -75 -31 -47 0 -51 -2 -61
-31 -9 -26 -15 -30 -42 -27 l-31 3 -3 109 c-1 61 0 116 2 123 4 9 31 13 100
13 90 0 95 -1 115 -26z m506 -4 c13 -25 21 -30 54 -30 49 0 70 -23 78 -88 9
-75 -1 -102 -37 -102 -23 0 -31 5 -36 25 -3 14 -4 36 0 48 8 34 -17 66 -41 51
-13 -8 -17 -21 -15 -47 5 -50 -12 -77 -48 -77 -17 0 -30 3 -31 8 -6 42 -4 202
2 220 13 34 55 30 74 -8z m442 18 c4 -7 8 -50 8 -95 1 -65 5 -86 19 -102 15
-17 16 -23 6 -36 -29 -35 -85 -11 -99 43 -11 38 -7 173 4 192 9 14 52 12 62
-2z m-110 -60 c11 -18 7 -158 -5 -170 -16 -16 -115 -20 -142 -6 -44 24 -53
134 -14 173 20 19 149 21 161 3z m358 -18 c9 -16 19 -30 23 -30 4 0 13 14 19
30 11 29 13 30 81 30 55 0 72 -4 86 -19 17 -19 18 -29 13 -121 -2 -50 -14 -57
-100 -59 -42 -1 -52 3 -75 29 -32 36 -36 37 -50 5 -10 -21 -18 -25 -57 -25
-42 0 -46 -2 -59 -35 -17 -40 -49 -47 -66 -16 -11 21 -14 199 -4 225 5 13 23
16 90 16 83 0 84 0 99 -30z m402 14 c9 -24 -10 -48 -43 -54 -27 -5 -29 -9 -34
-60 -5 -53 -6 -55 -37 -58 -41 -4 -47 16 -38 114 l7 74 69 0 c55 0 71 -3 76
-16z"/>
</g>
</svg>
